# Blender 4.2.4 LTS
# www.blender.org
mtllib battery.mtl
o Cylinder
v 0.000000 0.116884 -0.420437
v -0.000000 3.334200 -0.267641
v 0.210218 0.116884 -0.364109
v 0.133820 3.334200 -0.231784
v 0.364109 0.116884 -0.210218
v 0.231784 3.334200 -0.133820
v 0.420437 0.116884 0.000000
v 0.267641 3.334200 -0.000000
v 0.364109 0.116884 0.210218
v 0.231784 3.334200 0.133820
v 0.210218 0.116884 0.364109
v 0.133820 3.334200 0.231784
v 0.000000 0.116884 0.420437
v -0.000000 3.334200 0.267641
v -0.210218 0.116884 0.364109
v -0.133820 3.334200 0.231784
v -0.364109 0.116884 0.210218
v -0.231784 3.334200 0.133820
v -0.420437 0.116884 0.000000
v -0.267641 3.334200 -0.000000
v -0.364109 0.116884 -0.210218
v -0.231784 3.334200 -0.133820
v -0.210218 0.116884 -0.364109
v -0.133820 3.334200 -0.231784
v 0.275000 3.334200 -0.476314
v 0.000000 3.334200 -0.550000
v 0.476314 3.334200 -0.275000
v 0.550000 3.334200 0.000000
v 0.476314 3.334200 0.275000
v 0.275000 3.334200 0.476314
v 0.000000 3.334200 0.550000
v -0.275000 3.334200 0.476314
v -0.476314 3.334200 0.275000
v -0.550000 3.334200 0.000000
v -0.476314 3.334200 -0.275000
v -0.275000 3.334200 -0.476314
v 0.133820 3.552663 -0.231784
v -0.000000 3.552663 -0.267641
v 0.231783 3.552663 -0.133820
v 0.267641 3.552663 -0.000000
v 0.231783 3.552663 0.133820
v 0.133820 3.552663 0.231784
v -0.000000 3.552663 0.267641
v -0.133820 3.552663 0.231784
v -0.231784 3.552663 0.133820
v -0.267641 3.552663 -0.000000
v -0.231784 3.552663 -0.133820
v -0.133820 3.552663 -0.231784
v 0.000000 2.275111 -0.550000
v 0.275000 2.275111 -0.476314
v 0.476314 2.275111 -0.275000
v 0.550000 2.275111 0.000000
v 0.476314 2.275111 0.275000
v 0.275000 2.275111 0.476314
v 0.000000 2.275111 0.550000
v -0.275000 2.275111 0.476314
v -0.476314 2.275111 0.275000
v -0.550000 2.275111 0.000000
v -0.476314 2.275111 -0.275000
v -0.275000 2.275111 -0.476314
v 0.000000 0.116884 -0.550000
v 0.275000 0.116884 -0.476314
v 0.476314 0.116884 -0.275000
v 0.550000 0.116884 0.000000
v 0.476314 0.116884 0.275000
v 0.275000 0.116884 0.476314
v 0.000000 0.116884 0.550000
v -0.275000 0.116884 0.476314
v -0.476314 0.116884 0.275000
v -0.550000 0.116884 0.000000
v -0.476314 0.116884 -0.275000
v -0.275000 0.116884 -0.476314
vn -0.0000 -0.0000 -1.0000
vn 0.5000 -0.0000 -0.8660
vn 0.8660 -0.0000 -0.5000
vn 1.0000 -0.0000 -0.0000
vn 0.8660 -0.0000 0.5000
vn 0.5000 -0.0000 0.8660
vn -0.0000 -0.0000 1.0000
vn -0.5000 -0.0000 0.8660
vn -0.8660 -0.0000 0.5000
vn -1.0000 -0.0000 -0.0000
vn -0.8660 -0.0000 -0.5000
vn -0.5000 -0.0000 -0.8660
vn -0.0000 -1.0000 -0.0000
vn -0.0000 1.0000 -0.0000
vt 1.000000 0.835511
vt 1.000000 1.000000
vt 0.916667 1.000000
vt 0.916667 0.835511
vt 0.833333 1.000000
vt 0.833333 0.835511
vt 0.750000 1.000000
vt 0.750000 0.835511
vt 0.666667 1.000000
vt 0.666667 0.835511
vt 0.583333 1.000000
vt 0.583333 0.835511
vt 0.500000 1.000000
vt 0.500000 0.835511
vt 0.416667 1.000000
vt 0.416667 0.835511
vt 0.333333 1.000000
vt 0.333333 0.835511
vt 0.250000 1.000000
vt 0.250000 0.835511
vt 0.166667 1.000000
vt 0.166667 0.835511
vt 0.319012 0.369532
vt 0.250000 0.388023
vt 0.083333 1.000000
vt 0.083333 0.835511
vt 0.000000 1.000000
vt 0.000000 0.835511
vt 0.750000 0.433463
vt 0.841731 0.408884
vt 0.908884 0.341732
vt 0.933463 0.250000
vt 0.908884 0.158268
vt 0.841732 0.091116
vt 0.750000 0.066537
vt 0.658268 0.091116
vt 0.591116 0.158268
vt 0.566537 0.250000
vt 0.591116 0.341732
vt 0.658268 0.408884
vt 0.370000 0.457846
vt 0.250000 0.490000
vt 0.369532 0.319012
vt 0.457846 0.370000
vt 0.388023 0.250000
vt 0.490000 0.250000
vt 0.369532 0.180988
vt 0.457846 0.130000
vt 0.319012 0.130468
vt 0.370000 0.042154
vt 0.250000 0.111977
vt 0.250000 0.010000
vt 0.180988 0.130468
vt 0.130000 0.042154
vt 0.130468 0.180988
vt 0.042154 0.130000
vt 0.111977 0.250000
vt 0.010000 0.250000
vt 0.130468 0.319012
vt 0.042154 0.370000
vt 0.180988 0.369532
vt 0.130000 0.457846
vt 0.083333 0.500000
vt 0.000000 0.500000
vt 0.166667 0.500000
vt 0.250000 0.500000
vt 0.333333 0.500000
vt 0.416667 0.500000
vt 0.500000 0.500000
vt 0.583333 0.500000
vt 0.666667 0.500000
vt 0.750000 0.500000
vt 0.833333 0.500000
vt 0.916667 0.500000
vt 1.000000 0.500000
vt 0.750000 0.490000
vt 0.870000 0.457846
vt 0.957846 0.370000
vt 0.990000 0.250000
vt 0.957846 0.130000
vt 0.870000 0.042154
vt 0.750000 0.010000
vt 0.630000 0.042154
vt 0.542154 0.130000
vt 0.510000 0.250000
vt 0.542154 0.370000
vt 0.630000 0.457846
s 0
usemtl Material.001
f 1/29/13 3/30/13 5/31/13 7/32/13 9/33/13 11/34/13 13/35/13 15/36/13 17/37/13 19/38/13 21/39/13 23/40/13
s 1
f 72/63/12 60/26/12 49/28/1 61/64/1
f 71/65/11 59/22/11 60/26/12 72/63/12
f 70/66/10 58/20/10 59/22/11 71/65/11
f 69/67/9 57/18/9 58/20/10 70/66/10
f 68/68/8 56/16/8 57/18/9 69/67/9
f 67/69/7 55/14/7 56/16/8 68/68/8
f 66/70/6 54/12/6 55/14/7 67/69/7
f 65/71/5 53/10/5 54/12/6 66/70/6
f 64/72/4 52/8/4 53/10/5 65/71/5
f 63/73/3 51/6/3 52/8/4 64/72/4
f 62/74/2 50/4/2 51/6/3 63/73/3
f 61/75/1 49/1/1 50/4/2 62/74/2
s 0
f 3/30/13 1/29/13 61/76/13 62/77/13
f 5/31/13 3/30/13 62/77/13 63/78/13
f 7/32/13 5/31/13 63/78/13 64/79/13
f 9/33/13 7/32/13 64/79/13 65/80/13
f 11/34/13 9/33/13 65/80/13 66/81/13
f 13/35/13 11/34/13 66/81/13 67/82/13
f 15/36/13 13/35/13 67/82/13 68/83/13
f 17/37/13 15/36/13 68/83/13 69/84/13
f 19/38/13 17/37/13 69/84/13 70/85/13
f 21/39/13 19/38/13 70/85/13 71/86/13
f 23/40/13 21/39/13 71/86/13 72/87/13
f 1/29/13 23/40/13 72/87/13 61/76/13
s 1
usemtl Material.002
f 49/1/1 26/2/1 25/3/2 50/4/2
f 50/4/2 25/3/2 27/5/3 51/6/3
f 51/6/3 27/5/3 28/7/4 52/8/4
f 52/8/4 28/7/4 29/9/5 53/10/5
f 53/10/5 29/9/5 30/11/6 54/12/6
f 54/12/6 30/11/6 31/13/7 55/14/7
f 55/14/7 31/13/7 32/15/8 56/16/8
f 56/16/8 32/15/8 33/17/9 57/18/9
f 57/18/9 33/17/9 34/19/10 58/20/10
f 58/20/10 34/19/10 35/21/11 59/22/11
f 59/22/11 35/21/11 36/25/12 60/26/12
f 60/26/12 36/25/12 26/27/1 49/28/1
usemtl Material.003
f 4/23/2 2/24/1 38/24/1 37/23/2
s 0
f 2/24/14 4/23/14 25/41/14 26/42/14
f 4/23/14 6/43/14 27/44/14 25/41/14
f 6/43/14 8/45/14 28/46/14 27/44/14
f 8/45/14 10/47/14 29/48/14 28/46/14
f 10/47/14 12/49/14 30/50/14 29/48/14
f 12/49/14 14/51/14 31/52/14 30/50/14
f 14/51/14 16/53/14 32/54/14 31/52/14
f 16/53/14 18/55/14 33/56/14 32/54/14
f 18/55/14 20/57/14 34/58/14 33/56/14
f 20/57/14 22/59/14 35/60/14 34/58/14
f 22/59/14 24/61/14 36/62/14 35/60/14
f 24/61/14 2/24/14 26/42/14 36/62/14
f 37/23/14 38/24/14 48/61/14 47/59/14 46/57/14 45/55/14 44/53/14 43/51/14 42/49/14 41/47/14 40/45/14 39/43/14
s 1
f 18/55/9 16/53/8 44/53/8 45/55/9
f 12/49/6 10/47/5 41/47/5 42/49/6
f 2/24/1 24/61/12 48/61/12 38/24/1
f 6/43/3 4/23/2 37/23/2 39/43/3
f 20/57/10 18/55/9 45/55/9 46/57/10
f 14/51/7 12/49/6 42/49/6 43/51/7
f 8/45/4 6/43/3 39/43/3 40/45/4
f 22/59/11 20/57/10 46/57/10 47/59/11
f 16/53/8 14/51/7 43/51/7 44/53/8
f 10/47/5 8/45/4 40/45/4 41/47/5
f 24/61/12 22/59/11 47/59/11 48/61/12
